# xmcd CD database file
#
# Track frame offsets:
#	150
#	19742
#	41607
#	67585
#	90267
#	123514
#	149736
#	175409
#	198957
#	221611
#	243731
#	265025
#	286593
#	311849
#	333928
#
# Disc length: 4714 seconds
#
# Revision: 1
# Processed by: cddbd v1.5.2PL0 Copyright (c) Steve Scherf et al.
# Submitted via: CDex 1.70beta3
#
DISCID=d612680f
DTITLE=KENNY JAMES TRIO - ジャズで聴く 宇多田ヒカル作品集 ベストセレクション
DYEAR=1900
DGENRE=Jazz
TTITLE0=COLORS
TTITLE1=Keep Tryin’
TTITLE2=Automatic
TTITLE3=SAKURAドロップス
TTITLE4=time will tell
TTITLE5=First Love
TTITLE6=Wait&See -リスク-
TTITLE7=タイム・リミット
TTITLE8=DISTANCE
TTITLE9=蹴っ飛ばせ! 
TTITLE10=Eternally
TTITLE11=For You
TTITLE12=B&C
TTITLE13=Movin’on without you
TTITLE14=Can You Keep A Secret?
EXTD=
EXTT0=
EXTT1=
EXTT2=
EXTT3=
EXTT4=
EXTT5=
EXTT6=
EXTT7=
EXTT8=
EXTT9=
EXTT10=
EXTT11=
EXTT12=
EXTT13=
EXTT14=
PLAYORDER=
